<?xml version="1.0" encoding="UTF-8"?>
<svg version="1.1" xmlns="http://www.w3.org/2000/svg" width="399" height="418">
<path d="M0 0 C3.359375 1.63671875 3.359375 1.63671875 6.75 3.6875 C7.97603796 4.41624779 9.20260701 5.14410277 10.4296875 5.87109375 C11.03135742 6.23187012 11.63302734 6.59264648 12.25292969 6.96435547 C17.68346358 10.18351768 23.26142972 13.1752235 28.9375 15.9375 C32.26790956 17.5723055 35.43610675 19.41685672 38.625 21.3125 C43.03980033 23.92124565 47.52049264 26.30993525 52.125 28.5625 C57.10094584 31.00950739 61.85941559 33.62836957 66.578125 36.53515625 C70.96138226 39.18631992 75.49129559 41.57076857 80 44 C81.75039352 44.95761439 83.50039013 45.91595459 85.25 46.875 C88.35826678 48.57323991 91.47410492 50.25499501 94.60546875 51.91015625 C101.60438912 55.61134421 108.5161021 59.3961404 115.31640625 63.45703125 C117.19805384 64.53891014 119.11674598 65.55765987 121.05859375 66.52734375 C123.64424225 67.8218849 126.05257746 69.21605207 128.5 70.75 C132.56557031 73.22363013 136.72789942 75.41004737 141 77.5 C145.98747648 79.94026757 150.75515911 82.59170025 155.47265625 85.51953125 C159.40500284 87.8230233 163.51260551 89.75247038 167.62890625 91.703125 C170 93 170 93 171 95 C172.9174825 111.18911538 172.06529378 127.75027388 171.97949219 144.01171875 C171.87786132 162.5584921 171.87786132 162.5584921 172.51953125 181.08984375 C173.23292679 194.20930415 172.95220277 207.30702341 172.6875 220.4375 C172.66188995 221.72940247 172.63627991 223.02130493 172.6098938 224.35235596 C172.47554971 230.99057634 172.3297729 237.62836666 172.17382812 244.26611328 C172.05741794 249.26433898 171.95897225 254.26226233 171.88085938 259.26123047 C171.79406296 264.7817674 171.67005479 270.30010299 171.51455688 275.81912231 C171.46355624 277.84167665 171.42574124 279.86461036 171.40170288 281.88766479 C171.36571171 284.67489711 171.28096783 287.45651984 171.18359375 290.2421875 C171.18465118 291.45206581 171.18465118 291.45206581 171.18572998 292.68638611 C171.01532969 296.20940508 170.75551631 298.21701121 168.25224304 300.81130981 C164.40855829 303.74762741 160.31350579 306.06362446 155.9375 308.125 C151.50549976 310.23094374 147.23724902 312.52948017 143 315 C141.84538394 315.66724125 140.69043808 316.33391216 139.53515625 317 C138.96732422 317.32742188 138.39949219 317.65484375 137.81445312 317.9921875 C128.97719194 323.07582938 128.97719194 323.07582938 125 325 C120.9240172 326.97830127 117.03374385 329.25469723 113.1105957 331.51782227 C100.13917761 338.96783943 86.93307921 346.01590828 73.69995117 352.98803711 C69.08012383 355.42248719 64.49003609 357.90578076 59.9140625 360.421875 C57.66726976 361.63863675 55.41367352 362.83404973 53.1484375 364.015625 C44.97229401 368.28643303 36.95895726 372.73487317 29.04248047 377.47070312 C24.02307484 380.45401209 18.90477455 383.09846403 13.63671875 385.62109375 C10.30810201 387.36183702 7.37140541 389.47721437 4.42578125 391.80078125 C0.61987991 393.68228159 -2.7522365 394.36324966 -7 394 C-10.86755962 392.5747266 -14.28715492 390.55699877 -17.8125 388.4375 C-19.76086777 387.3175287 -21.71007949 386.19902423 -23.66015625 385.08203125 C-24.5845752 384.54400879 -25.50899414 384.00598633 -26.46142578 383.45166016 C-29.50664538 381.71027953 -32.59097918 380.14905296 -35.75 378.625 C-40.22814414 376.43740085 -44.4588321 373.97594078 -48.703125 371.3671875 C-50.76838455 370.13786634 -52.83799759 369.04640917 -55 368 C-58.03078542 366.53309986 -60.8812999 364.8882456 -63.75 363.125 C-68.38710683 360.29557888 -73.15571319 357.85892959 -78.04296875 355.4921875 C-80.78000651 354.11101389 -83.43844965 352.63205323 -86.09204102 351.09765625 C-89.66251444 349.04354895 -93.27239423 347.05953019 -96.875 345.0625 C-98.39322917 344.22005208 -99.91145833 343.37760417 -101.4296875 342.53515625 C-102.17887451 342.11967529 -102.92806152 341.70419434 -103.69995117 341.27612305 C-106.77393417 339.5706025 -109.84638805 337.86233508 -112.91870117 336.15380859 C-115.08849614 334.95094044 -117.26268694 333.75626674 -119.4375 332.5625 C-122.62576578 330.79431101 -125.75801352 328.95337332 -128.875 327.0625 C-134.15951164 323.86892342 -139.56369288 320.92547036 -145 318 C-151.46305546 314.50407455 -157.89863491 310.96027646 -164.3125 307.375 C-164.98240967 307.00270264 -165.65231934 306.63040527 -166.3425293 306.24682617 C-176.38732765 300.61267235 -176.38732765 300.61267235 -179 298 C-179.11554657 295.38140527 -179.16562327 292.78853388 -179.17408752 290.16876221 C-179.18058648 289.33839093 -179.18708543 288.50801965 -179.19378132 287.65248561 C-179.21428866 284.84808611 -179.22742894 282.04370126 -179.24047852 279.23925781 C-179.25328284 277.23739415 -179.26641815 275.23553257 -179.27986145 273.2336731 C-179.39582453 254.95007804 -179.45239228 236.66593246 -179.49662876 218.38203812 C-179.52989509 204.85749677 -179.58948907 191.33362376 -179.68413979 177.80936933 C-179.74838228 168.31042001 -179.78215215 158.81165328 -179.79337829 149.31249499 C-179.8009534 143.63399991 -179.82225754 137.9563113 -179.87640572 132.27805328 C-179.92674456 126.93606987 -179.93947721 121.59532242 -179.92315483 116.2531395 C-179.92375993 114.29108946 -179.93810427 112.328989 -179.96710205 110.36715317 C-180.00461272 107.68965133 -179.99289992 105.01672492 -179.96876526 102.33917236 C-179.99138587 101.56066524 -180.01400648 100.78215811 -180.03731257 99.98005986 C-179.98717594 97.79838943 -179.98717594 97.79838943 -179 94 C-176.56420195 91.81477751 -173.93603638 90.41043955 -171 89 C-170.09668945 88.4858252 -169.19337891 87.97165039 -168.26269531 87.44189453 C-167.45928711 87.00989746 -166.65587891 86.57790039 -165.828125 86.1328125 C-164.92231689 85.64312988 -164.01650879 85.15344727 -163.08325195 84.64892578 C-161.68079224 83.89458252 -161.68079224 83.89458252 -160.25 83.125 C-153.35979547 79.39529861 -146.52094455 75.62035146 -139.78149414 71.62426758 C-131.3726755 66.71389539 -122.70986159 62.23419261 -114.11968994 57.65200806 C-105.30665117 52.94843667 -96.50872565 48.22765397 -87.82470703 43.28857422 C-77.69734115 37.53666308 -67.4282389 32.03642575 -57.19506836 26.47583008 C-52.22692225 23.77200961 -47.27525518 21.0424883 -42.34375 18.27246094 C-35.02790162 14.16723624 -27.66870519 10.27411119 -20.12109375 6.609375 C-16.34729753 4.66343752 -12.85327166 2.40515651 -9.37890625 -0.03125 C-5.8882264 -1.45274196 -3.63045841 -0.88519233 0 0 Z " fill="#16282F" transform="translate(201,10)"/>
<path d="M0 0 C1.48119132 1.24981403 2.96238263 2.49962807 4.44357395 3.7494421 C6.49026031 5.39391458 8.64580464 6.68877019 10.93359375 7.97265625 C11.83013672 8.47990234 12.72667969 8.98714844 13.65039062 9.50976562 C14.57013672 10.02216797 15.48988281 10.53457031 16.4375 11.0625 C17.35337891 11.57876953 18.26925781 12.09503906 19.21289062 12.62695312 C20.99353332 13.63040217 22.77578328 14.63100573 24.55981445 15.62841797 C26.72004893 16.84264481 28.86537272 18.07899714 31.0078125 19.32421875 C33.45030378 20.69214141 35.26671634 21.56267461 38 22 C38 22.66 38 23.32 38 24 C38.98742188 24.226875 39.97484375 24.45375 40.9921875 24.6875 C45.55398334 25.99152619 49.196653 28.40090463 53.125 31 C57.3476198 33.76246155 61.27076965 36.18914941 66 38 C67.50385761 38.96246887 68.9837213 39.96343765 70.4375 41 C73.86027666 43.34671978 76.93898448 44.95871397 81 46 C81 46.66 81 47.32 81 48 C81.99 48.0928125 81.99 48.0928125 83 48.1875 C86.53937076 49.14607958 89.01816828 50.7941027 92.0625 52.7890625 C94.28090047 54.17556279 96.52834236 55.15036769 99 56 C99 56.66 99 57.32 99 58 C99.6909375 58.08378906 100.381875 58.16757813 101.09375 58.25390625 C104.7494738 59.19240524 107.33375352 60.892016 110.5 62.9375 C114.26352389 65.36004867 117.77636829 67.49493721 122 69 C122 69.66 122 70.32 122 71 C123.03640625 71.12568359 123.03640625 71.12568359 124.09375 71.25390625 C127.7494738 72.19240524 130.33375352 73.892016 133.5 75.9375 C137.26352389 78.36004867 140.77636829 80.49493721 145 82 C145 82.66 145 83.32 145 84 C145.639375 84.07347656 146.27875 84.14695312 146.9375 84.22265625 C151.31124404 85.33282853 155.03238331 87.32165246 159 89.4375 C159.7940625 89.82615234 160.588125 90.21480469 161.40625 90.61523438 C166.68144429 93.44185932 169.74784136 96.40319393 172.14990234 101.92504883 C173.93168117 108.37005295 173.78818006 114.98786654 173.8125 121.625 C173.83568952 123.12112949 173.86106397 124.61722677 173.88867188 126.11328125 C173.9509521 129.74216317 173.98373747 133.37058564 174 137 C174.01981934 136.01604248 174.03963867 135.03208496 174.06005859 134.01831055 C174.13613987 130.36717161 174.224853 126.71642991 174.31738281 123.06567383 C174.35566221 121.48567549 174.39051697 119.90559031 174.421875 118.32543945 C174.46754876 116.05388355 174.52553784 113.78292491 174.5859375 111.51171875 C174.59748871 110.80536789 174.60903992 110.09901703 174.62094116 109.3712616 C174.73071048 105.72258607 174.92142364 104.11786454 177 101 C176.85780006 119.39586245 176.71171106 137.79169317 176.5625 156.1875 C176.55698576 156.8678833 176.55147153 157.5482666 176.5457902 158.24926758 C176.25176508 194.50046261 175.92961325 230.75084227 175.4375 267 C175.4263982 267.81802975 175.4152964 268.63605949 175.40385818 269.47887802 C175.2743895 278.98599389 175.14035275 288.49303796 175 298 C171.10814528 297.28848596 168.12003301 296.21805955 164.60546875 294.375 C163.57542725 293.8377832 162.54538574 293.30056641 161.48413086 292.74707031 C160.39624268 292.17053711 159.30835449 291.59400391 158.1875 291 C156.50442749 290.11586426 156.50442749 290.11586426 154.78735352 289.21386719 C145.38299714 284.25246592 136.09354779 279.11103338 126.89453125 273.77978516 C125.44771925 272.94176411 123.99923567 272.10662216 122.54907227 271.27441406 C121.19154449 270.49527568 119.83753405 269.70995895 118.48803711 268.91699219 C115.53470363 267.22540063 113.0373135 266.0100066 109.72265625 265.12109375 C104.38132671 263.51252966 99.83515111 260.74328462 95 258 C93.14525011 256.98458108 91.28849473 255.97281618 89.4296875 254.96484375 C87.578125 253.95572917 85.7265625 252.94661458 83.875 251.9375 C82.95074219 251.43412109 82.02648437 250.93074219 81.07421875 250.41210938 C76.04421472 247.6700832 71.02378 244.91226058 66.01977539 242.12304688 C63.87150294 240.92855234 61.71739791 239.74499272 59.5625 238.5625 C56.37423422 236.79431101 53.24198648 234.95337332 50.125 233.0625 C44.84048836 229.86892342 39.43630712 226.92547036 34 224 C27.53694454 220.50407455 21.10136509 216.96027646 14.6875 213.375 C14.01759033 213.00270264 13.34768066 212.63040527 12.6574707 212.24682617 C2.61267235 206.61267235 2.61267235 206.61267235 0 204 C-0.09780783 201.36976027 -0.12994389 198.7657945 -0.12025452 196.13511658 C-0.12110894 195.30121747 -0.12196337 194.46731836 -0.12284368 193.60814959 C-0.12450104 190.79204911 -0.11897295 187.97600717 -0.11352539 185.15991211 C-0.11324355 183.14993796 -0.11340119 181.13996371 -0.1139679 179.12998962 C-0.11425599 173.6550079 -0.10835743 168.18004787 -0.10139394 162.70507121 C-0.09516228 156.99019527 -0.09455675 151.27531888 -0.09336853 145.56044006 C-0.09025466 134.73026574 -0.08204052 123.90010146 -0.07201904 113.06993157 C-0.06085964 100.74366298 -0.05534789 88.41739393 -0.05032361 76.09112155 C-0.03985795 50.72740879 -0.02225743 25.36370496 0 0 Z " fill="#3A4146" transform="translate(22,104)"/>
<path d="M0 0 C3.359375 1.63671875 3.359375 1.63671875 6.75 3.6875 C7.97603796 4.41624779 9.20260701 5.14410277 10.4296875 5.87109375 C11.03135742 6.23187012 11.63302734 6.59264648 12.25292969 6.96435547 C17.68346358 10.18351768 23.26142972 13.1752235 28.9375 15.9375 C32.26790956 17.5723055 35.43610675 19.41685672 38.625 21.3125 C43.03980033 23.92124565 47.52049264 26.30993525 52.125 28.5625 C57.10094584 31.00950739 61.85941559 33.62836957 66.578125 36.53515625 C70.96138226 39.18631992 75.49129559 41.57076857 80 44 C81.75039352 44.95761439 83.50039013 45.91595459 85.25 46.875 C88.35826678 48.57323991 91.47410492 50.25499501 94.60546875 51.91015625 C101.60438912 55.61134421 108.5161021 59.3961404 115.31640625 63.45703125 C117.19805384 64.53891014 119.11674598 65.55765987 121.05859375 66.52734375 C123.64424225 67.8218849 126.05257746 69.21605207 128.5 70.75 C132.56556925 73.22362948 136.72788826 75.41006679 141 77.5 C146.07536482 79.98300571 150.94226225 82.67156259 155.73828125 85.66015625 C157.9624225 86.97773907 160.21108427 88.05541798 162.5625 89.125 C166 91 166 91 166.82421875 92.96875 C167 95 167 95 165.25 97.375 C161.94480067 100.35420707 158.08098806 102.27926735 154.16015625 104.33203125 C150.72723557 106.14396837 147.36075512 108.05894224 144 110 C138.05214823 113.43145294 132.034868 116.72422229 126 120 C112.61232954 127.27691344 99.26609536 134.61357539 86.01025391 142.12792969 C78.13717357 146.5882645 70.23349046 150.96276512 62.23120117 155.18725586 C57.84526268 157.51547817 53.5879393 160.00248007 49.3515625 162.58984375 C44.98412727 165.20885391 40.47899707 167.57863964 36 170 C30.14202189 173.17751722 24.30049263 176.38293614 18.47851562 179.62597656 C16.887646 180.50791256 15.29288937 181.38289352 13.69335938 182.24902344 C11.61680383 183.37483315 9.55735901 184.52707733 7.5 185.6875 C6.89575195 186.0069458 6.29150391 186.3263916 5.66894531 186.65551758 C1.92728522 188.81487024 -0.53059502 191.33770582 -2.2890625 195.30395508 C-3.97062177 201.68082974 -3.69008351 208.44402167 -3.75 215 C-3.77819683 216.55341819 -3.80812938 218.10680589 -3.83984375 219.66015625 C-3.91327072 223.44004909 -3.96311166 227.21958122 -4 231 C-4.66 231.33 -5.32 231.66 -6 232 C-6.0093457 231.03698975 -6.01869141 230.07397949 -6.02832031 229.08178711 C-6.06842531 225.48253427 -6.1342382 221.88411793 -6.20751953 218.28540039 C-6.2356111 216.73277597 -6.25688407 215.18001167 -6.27099609 213.62719727 C-6.29259166 211.38485721 -6.33931951 209.1441779 -6.390625 206.90234375 C-6.39246796 205.87378517 -6.39246796 205.87378517 -6.39434814 204.82444763 C-6.55600182 199.41247592 -8.24772352 196.48015538 -11 192 C-11 191.01 -11 190.02 -11 189 C-12.2065625 188.6596875 -12.2065625 188.6596875 -13.4375 188.3125 C-17.11484502 186.95768868 -20.28490651 185.24870375 -23.67578125 183.30859375 C-27.05471364 181.40616963 -30.51961092 179.70855464 -34 178 C-34 177.34 -34 176.68 -34 176 C-35.01578125 175.75378906 -36.0315625 175.50757813 -37.078125 175.25390625 C-41.07397467 174.1120912 -44.25611058 172.19704586 -47.75 169.9375 C-52.17624069 167.05249552 -52.17624069 167.05249552 -57 165 C-57 164.34 -57 163.68 -57 163 C-57.54527344 162.85304687 -58.09054688 162.70609375 -58.65234375 162.5546875 C-64.0773991 160.94108129 -68.28585357 158.73085101 -72.859375 155.40234375 C-75.15544848 153.89816422 -77.42745982 152.9399666 -80 152 C-80 151.34 -80 150.68 -80 150 C-80.99 149.773125 -81.98 149.54625 -83 149.3125 C-86.86544018 148.22829117 -89.89240891 146.3525164 -93.203125 144.12109375 C-95.11227914 142.83264013 -95.11227914 142.83264013 -98 142 C-98 141.34 -98 140.68 -98 140 C-98.99 139.773125 -99.98 139.54625 -101 139.3125 C-104.74617821 138.24645329 -107.61171375 136.47955708 -110.84375 134.34765625 C-113.10678913 132.93325679 -115.40673791 131.77839543 -117.8125 130.625 C-121.62065852 128.77364909 -125.14058814 126.68778089 -128.6875 124.375 C-132.69825181 121.7600354 -136.52621484 119.69009662 -141 118 C-141 117.34 -141 116.68 -141 116 C-141.72219727 115.8868042 -142.44439453 115.7736084 -143.18847656 115.65698242 C-146.14400307 114.9663501 -148.32779349 113.94398783 -150.984375 112.48828125 C-151.92023438 111.97716797 -152.85609375 111.46605469 -153.8203125 110.93945312 C-154.78710938 110.40255859 -155.75390625 109.86566406 -156.75 109.3125 C-157.70132813 108.79494141 -158.65265625 108.27738281 -159.6328125 107.74414062 C-164.20537512 105.22923118 -168.72331643 102.63508553 -173.140625 99.85546875 C-173.86282227 99.40196045 -174.58501953 98.94845215 -175.32910156 98.48120117 C-177.30296271 96.73143268 -177.63455758 95.57223195 -178 93 C-155.64435131 80.27362525 -155.64435131 80.27362525 -146.6875 75.5625 C-141.87086732 73.02378863 -137.17802648 70.36477916 -132.53808594 67.51782227 C-130.01850668 66.01106734 -127.46836745 64.59275609 -124.88671875 63.1953125 C-121.09788142 61.13909408 -117.31285866 59.07661181 -113.53515625 57 C-104.92034585 52.27440012 -96.31587874 47.5977961 -87.4921875 43.2734375 C-84.21425486 41.5985064 -81.10480668 39.69783592 -77.96875 37.7734375 C-73.98235114 35.39208871 -69.93310666 33.13142945 -65.875 30.875 C-65.1226709 30.45508789 -64.3703418 30.03517578 -63.59521484 29.60253906 C-60.09152804 27.65988563 -56.57736843 25.76871382 -52.984375 23.99609375 C-48.6943456 21.87701187 -44.54039906 19.53987541 -40.375 17.1875 C-33.71285208 13.44932534 -26.99393 9.94647468 -20.12109375 6.609375 C-16.34729753 4.66343752 -12.85327166 2.40515651 -9.37890625 -0.03125 C-5.8882264 -1.45274196 -3.63045841 -0.88519233 0 0 Z " fill="#697D84" transform="translate(201,10)"/>
<path d="M0 0 C0 34.65 0 69.3 0 105 C-6.93 108.96 -13.86 112.92 -21 117 C-23.31386719 118.32515625 -25.62773437 119.6503125 -28.01171875 121.015625 C-29.90345724 122.09408088 -31.79537422 123.17222376 -33.6875 124.25 C-34.67298828 124.81589844 -35.65847656 125.38179688 -36.67382812 125.96484375 C-38.07858398 126.76341797 -38.07858398 126.76341797 -39.51171875 127.578125 C-40.33115967 128.04637695 -41.15060059 128.51462891 -41.99487305 128.99707031 C-44 130 -44 130 -46 130 C-46 130.66 -46 131.32 -46 132 C-46.52279541 132.22059082 -47.04559082 132.44118164 -47.58422852 132.66845703 C-53.90070687 135.39733043 -59.91378676 138.55589638 -65.9375 141.875 C-67.32485352 142.63103516 -67.32485352 142.63103516 -68.74023438 143.40234375 C-74.25745532 146.42579629 -79.6660126 149.57576248 -85.00610352 152.90283203 C-87 154 -87 154 -89 154 C-89 119.02 -89 84.04 -89 48 C-83.72 45.03 -78.44 42.06 -73 39 C-70.69 37.68 -68.38 36.36 -66 35 C-64.24185425 34.03512734 -62.48033741 33.07636106 -60.71484375 32.125 C-59.77189453 31.61453125 -58.82894531 31.1040625 -57.85742188 30.578125 C-55.90778344 29.52440737 -53.95725851 28.47232837 -52.00585938 27.421875 C-47.17304217 24.80203159 -42.57375114 22.05344396 -38 19 C-35.53532387 17.67584203 -33.02065943 16.46341076 -30.5 15.25 C-23.86911081 12.00242215 -17.45652243 8.49176432 -11.0859375 4.76171875 C-2.74501109 0 -2.74501109 0 0 0 Z " fill="#23F9F5" transform="translate(313,170)"/>
<path d="M0 0 C2.97167969 1.33178711 2.97167969 1.33178711 5.921875 3.02734375 C7.02144531 3.65044434 8.12101562 4.27354492 9.25390625 4.91552734 C10.11072998 5.41110138 10.11072998 5.41110138 10.98486328 5.91668701 C13.37124907 7.29678045 15.77115027 8.65249968 18.17077637 10.00939941 C19.37888856 10.69269798 20.58632895 11.37718569 21.79309082 12.06286621 C27.14418158 15.09943712 32.55197272 18.01677991 38 20.875 C38.77569336 21.28484131 39.55138672 21.69468262 40.35058594 22.11694336 C43.2056372 23.61159707 45.93730136 24.97910045 49 26 C49 26.66 49 27.32 49 28 C49.85231201 28.26047119 50.70462402 28.52094238 51.58276367 28.78930664 C57.1206618 30.7513297 62.19358645 33.62652451 67.3605957 36.39477539 C69.31901916 37.44098259 71.28513005 38.47164249 73.25195312 39.50195312 C74.49789336 40.16573364 75.74335387 40.83041556 76.98828125 41.49609375 C78.11790283 42.09607178 79.24752441 42.6960498 80.41137695 43.31420898 C83 45 83 45 84 48 C83.4237085 48.29543701 82.84741699 48.59087402 82.25366211 48.89526367 C71.20512106 54.57366696 60.23214785 60.35051365 49.4375 66.5 C41.5506368 70.99298191 33.64471178 75.44501273 25.6875 79.8125 C24.74382568 80.33457031 23.80015137 80.85664063 22.82788086 81.39453125 C21.96042236 81.86890625 21.09296387 82.34328125 20.19921875 82.83203125 C19.43440186 83.25202393 18.66958496 83.6720166 17.8815918 84.10473633 C16 85 16 85 14 85 C14 85.66 14 86.32 14 87 C11.44560598 88.37174861 8.88335569 89.72225408 6.3125 91.0625 C5.59126953 91.45244141 4.87003906 91.84238281 4.12695312 92.24414062 C-1.28348124 95.03582594 -1.28348124 95.03582594 -4.734375 94.86328125 C-5.48203125 94.57839844 -6.2296875 94.29351562 -7 94 C-7.76441406 93.71382813 -8.52882813 93.42765625 -9.31640625 93.1328125 C-13.23724199 91.37355055 -16.58313349 89.61959766 -20 87 C-22.30244134 85.90407814 -24.63356975 84.95567375 -27 84 C-27 83.34 -27 82.68 -27 82 C-27.60328125 81.80664062 -28.2065625 81.61328125 -28.828125 81.4140625 C-29.62734375 81.15367187 -30.4265625 80.89328125 -31.25 80.625 C-32.03890625 80.36976563 -32.8278125 80.11453125 -33.640625 79.8515625 C-35.86627958 79.04826333 -37.90931672 78.10288338 -40 77 C-40 76.34 -40 75.68 -40 75 C-40.60328125 74.81824219 -41.2065625 74.63648438 -41.828125 74.44921875 C-42.62734375 74.19785156 -43.4265625 73.94648438 -44.25 73.6875 C-45.03890625 73.44386719 -45.8278125 73.20023437 -46.640625 72.94921875 C-49 72 -49 72 -50.796875 70.64453125 C-53.96226192 68.28171583 -57.45012298 66.71062914 -61 65 C-65.29163854 62.9319278 -69.23675935 60.95205322 -73 58 C-74.35820768 57.27989366 -75.73348605 56.59092955 -77.125 55.9375 C-79.61230777 54.76893465 -81.02768387 53.97231613 -83 52 C-85.05031372 51.19916172 -87.12440501 50.54290981 -89.22265625 49.87890625 C-89.80917969 49.58886719 -90.39570312 49.29882812 -91 49 C-91.495 47.515 -91.495 47.515 -92 46 C-90.81748657 45.37508667 -90.81748657 45.37508667 -89.61108398 44.73754883 C-75.14319271 37.08215225 -60.73108426 29.36710357 -46.51928711 21.24243164 C-41.04218426 18.12089187 -35.51754882 15.20781727 -29.83984375 12.46484375 C-22.87131987 8.87035069 -15.8218897 4.79635923 -9.49609375 0.16796875 C-5.97888866 -1.47779701 -3.76969206 -0.77361327 0 0 Z " fill="#25FBF8" transform="translate(200,74)"/>
<path d="M0 0 C0.1320143 13.71096901 0.2625 27.42195169 0.39115143 41.13295269 C0.45096562 47.50278613 0.5112632 53.87261415 0.57275391 60.24243164 C1.10239907 115.17702046 1.10239907 115.17702046 1 138 C-0.32 138 -1.64 138 -3 138 C-3 138.66 -3 139.32 -3 140 C-4.65 140.33 -6.3 140.66 -8 141 C-8 141.66 -8 142.32 -8 143 C-11.465 143.99 -11.465 143.99 -15 145 C-15 145.66 -15 146.32 -15 147 C-17.53919006 148.29673602 -20.08114238 149.58747837 -22.625 150.875 C-23.33785156 151.23980469 -24.05070312 151.60460937 -24.78515625 151.98046875 C-28.78751837 154.00000927 -32.68917073 155.7081111 -37 157 C-37 157.66 -37 158.32 -37 159 C-38.26263672 159.60521484 -38.26263672 159.60521484 -39.55078125 160.22265625 C-53.33230806 166.92744057 -66.64694997 174.49057326 -80 182 C-81.07991211 182.60666504 -82.15982422 183.21333008 -83.27246094 183.83837891 C-98.18551319 192.20323117 -98.18551319 192.20323117 -112.890625 200.92578125 C-115 202 -115 202 -118 202 C-118 191.44 -118 180.88 -118 170 C-106.25 163.4375 -106.25 163.4375 -102.62597656 161.41577148 C-101.64081055 160.86477783 -100.65564453 160.31378418 -99.640625 159.74609375 C-98.54169922 159.13233887 -97.44277344 158.51858398 -96.31054688 157.88623047 C-92.06776409 155.46884553 -87.899731 152.93311203 -83.74511719 150.36743164 C-80.79384175 148.89730591 -78.26035942 148.37649531 -75 148 C-75 147.34 -75 146.68 -75 146 C-73.80793945 145.34366577 -73.80793945 145.34366577 -72.59179688 144.67407227 C-69.55713842 143.0027697 -66.52284383 141.3308099 -63.48876953 139.65844727 C-62.19170741 138.94367783 -60.89451312 138.22914817 -59.59716797 137.51489258 C-49.69929891 132.06528763 -39.8484497 126.53975296 -30 121 C-30 86.02 -30 51.04 -30 15 C-19.11 9.06 -19.11 9.06 -8 3 C-3 0 -3 0 0 0 Z " fill="#357C82" transform="translate(342,154)"/>
<path d="M0 0 C3.17287039 1.49620245 6.20686677 3.19478826 9.25 4.9375 C10.13260498 5.43330566 11.01520996 5.92911133 11.92456055 6.43994141 C13.74572777 7.46323755 15.56498308 8.48994368 17.38232422 9.52001953 C20.46468777 11.26272498 23.56237891 12.97639537 26.66235352 14.6875 C32.29552798 17.79863439 37.90891037 20.94272185 43.5 24.12890625 C55.37273793 30.89134909 67.33388671 37.41230691 79.47119141 43.68701172 C82.82848903 45.43016162 86.17183163 47.19916841 89.51538086 48.96850586 C97.95274437 53.43254386 106.43708962 57.78140467 115 62 C115.33 61.34 115.66 60.68 116 60 C116.33 60.99 116.66 61.98 117 63 C116.37544922 63.33733154 115.75089844 63.67466309 115.10742188 64.0222168 C112.23682885 65.57464243 109.36840837 67.13104177 106.5 68.6875 C105.51773438 69.21794922 104.53546875 69.74839844 103.5234375 70.29492188 C102.55664062 70.82021484 101.58984375 71.34550781 100.59375 71.88671875 C99.63855469 72.40411621 98.68335938 72.92151367 97.69921875 73.45458984 C94.62416719 75.21517924 91.75703745 77.18723995 88.93164062 79.32348633 C85.39387609 80.56250876 82.46252658 78.70167628 79.23577881 77.15357971 C77.27841844 76.16016279 75.3451318 75.12950969 73.4140625 74.0859375 C72.36138687 73.5241832 72.36138687 73.5241832 71.28744507 72.95108032 C69.06426539 71.76341192 66.84461059 70.5693229 64.625 69.375 C63.11090599 68.56467632 61.59658529 67.75477603 60.08203125 66.9453125 C56.38538027 64.96843053 52.69187493 62.98578602 49 61 C49 60.34 49 59.68 49 59 C48.27361328 58.88245361 47.54722656 58.76490723 46.79882812 58.64379883 C43.95063897 57.98864576 41.80125972 57.05234408 39.21875 55.69921875 C38.30416016 55.22202393 37.38957031 54.7448291 36.44726562 54.25317383 C35.47466797 53.73650146 34.50207031 53.2198291 33.5 52.6875 C32.49130859 52.15858154 31.48261719 51.62966309 30.44335938 51.0847168 C25.25740857 48.34332874 20.1297445 45.52564059 15.0625 42.5703125 C14.12599609 42.02415283 13.18949219 41.47799316 12.22460938 40.9152832 C10.44839721 39.87040571 8.67848029 38.81472922 6.91601562 37.74682617 C0.40334142 33.88707864 0.40334142 33.88707864 -7 33 C-10.31973143 34.41972311 -13.24171808 36.32879068 -16.25 38.3125 C-18.04164591 39.44037843 -19.83597997 40.56399665 -21.6328125 41.68359375 C-22.53418945 42.24804199 -23.43556641 42.81249023 -24.36425781 43.39404297 C-28.19729557 45.72951188 -32.13611268 47.82040611 -36.125 49.875 C-37.68889704 50.68471246 -39.25269577 51.49461481 -40.81640625 52.3046875 C-41.6377002 52.72975586 -42.45899414 53.15482422 -43.30517578 53.59277344 C-48.58249587 56.34856914 -53.82066479 59.17747335 -59.0625 62 C-60.71922729 62.88836548 -60.71922729 62.88836548 -62.40942383 63.79467773 C-67.47246689 66.51816032 -72.50977159 69.27004314 -77.484375 72.15234375 C-78.30800537 72.62607422 -79.13163574 73.09980469 -79.98022461 73.58789062 C-81.48843809 74.46064307 -82.98984023 75.34532145 -84.48266602 76.24414062 C-87.1923623 77.80893663 -89.29371837 79.00447014 -92.46875 78.984375 C-96.11528252 77.56627902 -99.65937726 76.00344067 -103.1875 74.3125 C-103.93765381 73.95671875 -104.68780762 73.6009375 -105.46069336 73.234375 C-111.18141285 70.48280816 -116.67078876 67.45678567 -122 64 C-121 61 -121 61 -119.12084961 59.79248047 C-117.89893921 59.21071045 -117.89893921 59.21071045 -116.65234375 58.6171875 C-115.2914563 57.95662354 -115.2914563 57.95662354 -113.90307617 57.28271484 C-112.92443604 56.81816895 -111.9457959 56.35362305 -110.9375 55.875 C-104.08399234 52.54074174 -97.29819711 49.1705629 -90.6875 45.375 C-85.13863543 42.20452607 -79.56733015 39.08750162 -73.9375 36.0625 C-73.2468042 35.68464355 -72.5561084 35.30678711 -71.84448242 34.91748047 C-67.62848588 32.6675113 -63.64078671 31.15265314 -59 30 C-59 29.34 -59 28.68 -59 28 C-57.83726562 27.39414063 -56.67453125 26.78828125 -55.4765625 26.1640625 C-47.20674058 21.84137927 -38.96680172 17.47493101 -30.8125 12.9375 C-30.0788623 12.53120361 -29.34522461 12.12490723 -28.58935547 11.70629883 C-24.86818261 9.63610359 -21.18104895 7.52320048 -17.52734375 5.3359375 C-16.44779419 4.69990601 -16.44779419 4.69990601 -15.34643555 4.05102539 C-13.98921015 3.24920817 -12.63973819 2.43405668 -11.30004883 1.60327148 C-7.05301022 -0.88881105 -4.68650058 -1.56997769 0 0 Z " fill="#2D737B" transform="translate(200,41)"/>
<path d="M0 0 C5.81704216 1.62915514 10.8133997 4.46318795 16.0625 7.375 C17.02478516 7.90375732 17.98707031 8.43251465 18.97851562 8.97729492 C26.58625909 13.17383639 34.11893415 17.49660446 41.64453125 21.83813477 C47.62539811 25.26883908 53.67792018 28.40928272 59.87890625 31.42578125 C63.00214176 33.00108026 65.99471449 34.71104555 69 36.5 C73.03147177 38.89880496 77.09382689 41.07376493 81.3125 43.125 C91.79734043 48.27359614 101.86696471 54.19870415 112 60 C113.39707398 60.79828461 114.79419987 61.5964784 116.19140625 62.39453125 C117.11824219 62.92433594 118.04507813 63.45414063 119 64 C119 64.66 119 65.32 119 66 C120.3303125 66.185625 120.3303125 66.185625 121.6875 66.375 C125 67 125 67 127.4375 68.0625 C131.94200541 69.71048979 135.28071578 69.70422659 139.765625 67.8671875 C145.47705831 65.07004965 150.90764857 61.88746853 156.3203125 58.55859375 C159.97393644 56.43352677 163.75532574 54.60070292 167.55078125 52.74414062 C172.3632911 50.36893415 176.99603559 47.73843433 181.63476562 45.03808594 C185.76407334 42.6561417 189.96858036 40.47178507 194.25 38.375 C201.78470251 34.6797946 209.17631081 30.73278936 216.5625 26.75 C217.68108398 26.14720215 218.79966797 25.5444043 219.95214844 24.92333984 C224.38466067 22.52668302 228.80774584 20.13126335 233.15234375 17.578125 C236 16 236 16 238 16 C238 16.66 238 17.32 238 18 C236.09838867 19.35351563 236.09838867 19.35351563 233.41796875 20.90625 C232.43199707 21.48052734 231.44602539 22.05480469 230.43017578 22.64648438 C229.36009277 23.25814453 228.29000977 23.86980469 227.1875 24.5 C226.10194824 25.12712891 225.01639648 25.75425781 223.89794922 26.40039062 C216.43924403 30.68124795 208.89755563 34.77144565 201.26049805 38.72363281 C196.46706132 41.20684811 191.80891524 43.82761365 187.2109375 46.66015625 C182.90093239 49.2720498 178.43229351 51.60388773 174 54 C168.14202189 57.17751722 162.30049263 60.38293614 156.47851562 63.62597656 C154.887646 64.50791256 153.29288937 65.38289352 151.69335938 66.24902344 C149.61680383 67.37483315 147.55735901 68.52707733 145.5 69.6875 C144.89575195 70.0069458 144.29150391 70.3263916 143.66894531 70.65551758 C139.92728522 72.81487024 137.46940498 75.33770582 135.7109375 79.30395508 C134.02937823 85.68082974 134.30991649 92.44402167 134.25 99 C134.22180317 100.55341819 134.19187062 102.10680589 134.16015625 103.66015625 C134.08672928 107.44004909 134.03688834 111.21958122 134 115 C133.01 115.495 133.01 115.495 132 116 C131.9906543 115.03698975 131.98130859 114.07397949 131.97167969 113.08178711 C131.93157469 109.48253427 131.8657618 105.88411793 131.79248047 102.28540039 C131.7643889 100.73277597 131.74311593 99.18001167 131.72900391 97.62719727 C131.70740834 95.38485721 131.66068049 93.1441779 131.609375 90.90234375 C131.60753204 89.87378517 131.60753204 89.87378517 131.60565186 88.82444763 C131.44399818 83.41247592 129.75227648 80.48015538 127 76 C127 75.01 127 74.02 127 73 C126.195625 72.773125 125.39125 72.54625 124.5625 72.3125 C120.88515498 70.95768868 117.71509349 69.24870375 114.32421875 67.30859375 C110.94528636 65.40616963 107.48038908 63.70855464 104 62 C104 61.34 104 60.68 104 60 C102.98421875 59.75378906 101.9684375 59.50757813 100.921875 59.25390625 C96.92602533 58.1120912 93.74388942 56.19704586 90.25 53.9375 C85.82375931 51.05249552 85.82375931 51.05249552 81 49 C81 48.34 81 47.68 81 47 C80.45472656 46.85304687 79.90945312 46.70609375 79.34765625 46.5546875 C73.9226009 44.94108129 69.71414643 42.73085101 65.140625 39.40234375 C62.84455152 37.89816422 60.57254018 36.9399666 58 36 C58 35.34 58 34.68 58 34 C57.01 33.773125 56.02 33.54625 55 33.3125 C51.13455982 32.22829117 48.10759109 30.3525164 44.796875 28.12109375 C42.88772086 26.83264013 42.88772086 26.83264013 40 26 C40 25.34 40 24.68 40 24 C39.01 23.773125 38.02 23.54625 37 23.3125 C33.24905583 22.24509705 30.38063496 20.47455843 27.14453125 18.33984375 C24.94447886 16.96531193 22.71917974 15.85878551 20.375 14.75 C15.88609207 12.55106538 11.65899168 10.04177077 7.4375 7.375 C6.8172998 6.99053711 6.19709961 6.60607422 5.55810547 6.20996094 C1.1193952 3.3581856 1.1193952 3.3581856 0 0 Z " fill="#9FB0B6" transform="translate(63,126)"/>
<path d="M0 0 C3.25169041 0.61833039 5.4007225 1.73347837 8.0625 3.6875 C8.73410156 4.16574219 9.40570313 4.64398438 10.09765625 5.13671875 C15.67744251 10.60193034 15.87239672 17.76189957 16.640625 25.09960938 C17.36101523 30.64749271 18.44915578 33.35210106 23 37 C24 38 24 38 24.0625 41.5625 C24.041875 42.696875 24.02125 43.83125 24 45 C20.535 44.505 20.535 44.505 17 44 C16.83564453 45.46373047 16.83564453 45.46373047 16.66796875 46.95703125 C16.50941406 48.22933594 16.35085937 49.50164062 16.1875 50.8125 C16.03667969 52.07707031 15.88585937 53.34164062 15.73046875 54.64453125 C14.73813599 59.20289404 14.73813599 59.20289404 12 61 C8.26715559 61.41476049 5.61860562 61.21058915 2.0625 60 C0 58 0 58 -0.3046875 56.01953125 C-0.31179924 54.0104647 -0.16412818 52.00236384 0 50 C2.31 50.33 4.62 50.66 7 51 C6.9071875 49.205625 6.9071875 49.205625 6.8125 47.375 C6.79056063 43.26502405 7.86869566 40.5521739 10 37 C10.66 37 11.32 37 12 37 C11.73445312 36.44054687 11.46890625 35.88109375 11.1953125 35.3046875 C8.38887688 28.9338738 7.20520245 22.90597602 6.39453125 16.00390625 C6.09104692 12.95647983 6.09104692 12.95647983 5 10 C2.49552484 8.78130071 2.49552484 8.78130071 0 8 C0 5.36 0 2.72 0 0 Z " fill="#19EFEF" transform="translate(130,239)"/>
<path d="M0 0 C3.02415518 0.74277496 5.7336095 1.58914068 8.5625 2.875 C8.5625 5.515 8.5625 8.155 8.5625 10.875 C6.2525 10.545 3.9425 10.215 1.5625 9.875 C1.53671875 10.61105469 1.5109375 11.34710938 1.484375 12.10546875 C0.92102373 21.79767135 0.92102373 21.79767135 -3.4375 25.875 C-3.14875 26.41125 -2.86 26.9475 -2.5625 27.5 C0.27355196 33.48722081 1.08977115 39.32604945 1.8046875 45.8515625 C2.68112175 49.34826411 3.79387255 50.63272758 6.5625 52.875 C7.2225 53.205 7.8825 53.535 8.5625 53.875 C8.5625 56.185 8.5625 58.495 8.5625 60.875 C3.76533682 60.4517209 0.80233487 58.26656267 -2.4375 54.875 C-6.85760697 49.22708554 -7.18063318 43.44948599 -7.75 36.49609375 C-8.52899651 32.39308375 -9.84570011 30.1195142 -12.4375 26.875 C-13.4275 26.215 -14.4175 25.555 -15.4375 24.875 C-15.84593923 22.16296348 -15.57086867 19.6312858 -15.4375 16.875 C-13.9834375 16.9059375 -13.9834375 16.9059375 -12.5 16.9375 C-9.56284105 17.23118499 -9.56284105 17.23118499 -8.4375 15.875 C-8.23288971 12.86950225 -8.11805811 9.86597256 -8.01171875 6.85546875 C-7.05822803 1.90639785 -5.06560514 -0.18420382 0 0 Z " fill="#1DEFF0" transform="translate(79.4375,212.125)"/>
<path d="M0 0 C5.81704216 1.62915514 10.8133997 4.46318795 16.0625 7.375 C17.02478516 7.90375732 17.98707031 8.43251465 18.97851562 8.97729492 C26.58625909 13.17383639 34.11893415 17.49660446 41.64453125 21.83813477 C47.62539811 25.26883908 53.67792018 28.40928272 59.87890625 31.42578125 C63.00214176 33.00108026 65.99471449 34.71104555 69 36.5 C73.03147177 38.89880496 77.09382689 41.07376493 81.3125 43.125 C91.79734043 48.27359614 101.86696471 54.19870415 112 60 C113.39707398 60.79828461 114.79419987 61.5964784 116.19140625 62.39453125 C117.11824219 62.92433594 118.04507813 63.45414063 119 64 C119 64.66 119 65.32 119 66 C119.66 66 120.32 66 121 66 C121 66.66 121 67.32 121 68 C116.45168539 68.40504471 113.68131992 67.10663029 109.6875 65 C108.61886719 64.443125 107.55023438 63.88625 106.44921875 63.3125 C105.64097656 62.879375 104.83273438 62.44625 104 62 C104 61.34 104 60.68 104 60 C102.98421875 59.75378906 101.9684375 59.50757813 100.921875 59.25390625 C96.92602533 58.1120912 93.74388942 56.19704586 90.25 53.9375 C85.82375931 51.05249552 85.82375931 51.05249552 81 49 C81 48.34 81 47.68 81 47 C80.45472656 46.85304687 79.90945312 46.70609375 79.34765625 46.5546875 C73.9226009 44.94108129 69.71414643 42.73085101 65.140625 39.40234375 C62.84455152 37.89816422 60.57254018 36.9399666 58 36 C58 35.34 58 34.68 58 34 C57.01 33.773125 56.02 33.54625 55 33.3125 C51.13455982 32.22829117 48.10759109 30.3525164 44.796875 28.12109375 C42.88772086 26.83264013 42.88772086 26.83264013 40 26 C40 25.34 40 24.68 40 24 C39.01 23.773125 38.02 23.54625 37 23.3125 C33.24905583 22.24509705 30.38063496 20.47455843 27.14453125 18.33984375 C24.94447886 16.96531193 22.71917974 15.85878551 20.375 14.75 C15.88609207 12.55106538 11.65899168 10.04177077 7.4375 7.375 C6.8172998 6.99053711 6.19709961 6.60607422 5.55810547 6.20996094 C1.1193952 3.3581856 1.1193952 3.3581856 0 0 Z " fill="#A9B6BC" transform="translate(63,126)"/>
<path d="M0 0 C3.1385057 0.74438917 6.02009661 1.75837359 9 3 C7.55604578 11.95332435 4.77299834 20.45654108 2 29.0625 C1.09944621 31.86440082 0.20355108 34.66771906 -0.6875 37.47265625 C-0.89979248 38.13617096 -1.11208496 38.79968567 -1.33081055 39.48330688 C-2.47278431 43.10984982 -3.41041492 46.70047727 -4.125 50.43359375 C-4.41375 51.61050781 -4.7025 52.78742188 -5 54 C-8 55 -8 55 -11.1875 53.5625 C-12.115625 53.046875 -13.04375 52.53125 -14 52 C-13.41439992 47.24891922 -12.48241137 42.85402716 -11.07421875 38.28125 C-10.88535599 37.66084839 -10.69649323 37.04044678 -10.50190735 36.40124512 C-9.90195966 34.43263833 -9.29526707 32.46620534 -8.6875 30.5 C-7.89628066 27.92813166 -7.10851159 25.35523905 -6.32421875 22.78125 C-6.1313327 22.14864258 -5.93844666 21.51603516 -5.73971558 20.86425781 C-3.65286036 13.95556447 -1.81294232 6.9850318 0 0 Z " fill="#16EFEE" transform="translate(111,228)"/>
<path d="M0 0 C0.88613489 3.0380134 1.11501695 5.71846059 1.08901978 8.87809753 C1.08342545 9.8581929 1.07783112 10.83828827 1.07206726 11.8480835 C1.06069229 12.91681702 1.04931732 13.98555054 1.03759766 15.08666992 C1.02959641 16.21706192 1.02159515 17.34745392 1.01335144 18.51210022 C0.98545074 22.25161804 0.94998563 25.99102002 0.9140625 29.73046875 C0.89229932 32.32310228 0.87084953 34.91573846 0.84970093 37.50837708 C0.80419565 42.94141188 0.7550673 48.37439641 0.703125 53.80737305 C0.64306939 60.09556693 0.59031938 66.38379092 0.54135668 72.67208022 C0.49408199 78.71735176 0.44124526 84.76255936 0.38599777 90.80776405 C0.36302429 93.38309798 0.34152424 95.95844546 0.32149124 98.53380394 C0.29284999 102.12310448 0.25789566 105.71228778 0.22119141 109.30151367 C0.2138649 110.37631989 0.20653839 111.4511261 0.19898987 112.5585022 C0.18775589 113.53013809 0.17652191 114.50177399 0.16494751 115.50285339 C0.15719614 116.35216022 0.14944477 117.20146704 0.14145851 118.07651043 C0 120 0 120 -1 121 C-1.23527773 123.34987262 -1.41386417 125.70556039 -1.5625 128.0625 C-1.64628906 129.35285156 -1.73007813 130.64320313 -1.81640625 131.97265625 C-1.87699219 132.97167969 -1.93757812 133.97070312 -2 135 C-2.33 135 -2.66 135 -3 135 C-4.19698957 120.76472247 -4.12856099 106.5570917 -4.09765625 92.28125 C-4.0957875 89.72578967 -4.09436576 87.17032898 -4.09336853 84.61486816 C-4.08996477 78.61946732 -4.08211604 72.62408886 -4.07201904 66.62869692 C-4.0607598 59.79169921 -4.05532298 52.95470051 -4.05032361 46.11769581 C-4.03993004 32.07845361 -4.02239242 18.03922784 -4 4 C-3.67 4 -3.34 4 -3 4 C-2.67 14.56 -2.34 25.12 -2 36 C-1.90912109 32.47892578 -1.90912109 32.47892578 -1.81640625 28.88671875 C-1.75459588 26.61300502 -1.69121689 24.33934005 -1.62768555 22.06567383 C-1.58437695 20.48563985 -1.54269894 18.90556031 -1.50268555 17.32543945 C-1.44488417 15.05405952 -1.3812184 12.78290811 -1.31640625 10.51171875 C-1.29969376 9.80536789 -1.28298126 9.09901703 -1.26576233 8.3712616 C-1.1740253 5.3335176 -0.96792314 2.90376942 0 0 Z " fill="#465257" transform="translate(198,205)"/>
<path d="M0 0 C0.99 0.33 1.98 0.66 3 1 C-3.99925115 6.00759432 -11.45541513 10.00753874 -19.06591797 13.97998047 C-20.98265894 14.99085446 -22.88559281 16.02365451 -24.78515625 17.06640625 C-25.37973633 17.3919751 -25.97431641 17.71754395 -26.58691406 18.05297852 C-28.22170158 18.95016878 -29.85503504 19.85000701 -31.48828125 20.75 C-34 22 -34 22 -36 22 C-36 22.66 -36 23.32 -36 24 C-36.88816406 24.43828125 -37.77632812 24.8765625 -38.69140625 25.328125 C-55.29542787 33.55804086 -71.67444871 42.22726166 -88.06176758 50.87841797 C-88.78775146 51.26143066 -89.51373535 51.64444336 -90.26171875 52.0390625 C-90.89037842 52.37115723 -91.51903809 52.70325195 -92.16674805 53.04541016 C-92.77172119 53.3604248 -93.37669434 53.67543945 -94 54 C-94.67522705 54.39106934 -95.3504541 54.78213867 -96.04614258 55.18505859 C-98 56 -98 56 -101 55 C-98.73437454 53.49157829 -96.46313837 51.99317749 -94.1875 50.5 C-93.54490234 50.07074219 -92.90230469 49.64148438 -92.24023438 49.19921875 C-87.33984375 46 -87.33984375 46 -84 46 C-84 45.34 -84 44.68 -84 44 C-82.80890625 43.4121875 -82.80890625 43.4121875 -81.59375 42.8125 C-77.1924736 40.6118618 -72.84986133 38.3000822 -68.5 36 C-59.79509136 31.39709341 -59.79509136 31.39709341 -55.56640625 29.28515625 C-52.9611567 28.02506544 -52.9611567 28.02506544 -50.4375 26.4375 C-48 25 -48 25 -45.4375 24 C-42.98417427 23.11770917 -42.98417427 23.11770917 -41.125 21.5625 C-38.85397406 19.89262799 -36.53168182 18.93090714 -33.9442749 17.84552002 C-30.74608392 16.45470101 -27.66501326 14.84742356 -24.5703125 13.2421875 C-23.89451141 12.8936673 -23.21871033 12.54514709 -22.52243042 12.18606567 C-21.1084232 11.45610827 -19.69502815 10.72496391 -18.28222656 9.99267578 C-16.11171531 8.8681171 -13.93882014 7.74826801 -11.765625 6.62890625 C-10.38787788 5.91694324 -9.01026863 5.20471335 -7.6328125 4.4921875 C-6.98184601 4.15677948 -6.33087952 3.82137146 -5.66018677 3.47579956 C-2.63430058 2.02275073 -2.63430058 2.02275073 0 0 Z " fill="#9CAFB5" transform="translate(177,47)"/>
<path d="M0 0 C3.44890321 1.31496387 6.65175826 2.82042978 9.87890625 4.609375 C10.79349609 5.11339844 11.70808594 5.61742187 12.65039062 6.13671875 C13.61138672 6.66910156 14.57238281 7.20148437 15.5625 7.75 C24.20572482 12.5188848 24.20572482 12.5188848 33 17 C41.45176005 21.14136242 49.64694445 25.77887724 57.89746094 30.30322266 C63.38094101 33.30213567 68.8782358 36.27552675 74.375 39.25 C75.43364258 39.82306885 76.49228516 40.3961377 77.58300781 40.98657227 C80.05518059 42.32467375 82.5275044 43.66249514 85 45 C85 45.66 85 46.32 85 47 C81.53835789 46.42602738 78.78609411 45.56262222 75.69140625 43.91796875 C74.872771 43.48645508 74.05413574 43.05494141 73.21069336 42.61035156 C72.33678955 42.14081055 71.46288574 41.67126953 70.5625 41.1875 C69.18880249 40.45805176 69.18880249 40.45805176 67.78735352 39.71386719 C64.85345904 38.15131722 61.92590772 36.57745008 59 35 C58.03030273 34.47809082 57.06060547 33.95618164 56.06152344 33.41845703 C46.48415188 28.2541251 36.94439086 23.04728974 27.578125 17.5078125 C21.96638238 14.22579333 16.23633722 11.15145478 10.45703125 8.17578125 C9.86140381 7.86576172 9.26577637 7.55574219 8.65209961 7.23632812 C6.95661056 6.35492538 5.25577186 5.48383619 3.5546875 4.61328125 C1 3 1 3 0 0 Z " fill="#9CB6B9" transform="translate(217,49)"/>
<path d="M0 0 C3.48670834 1.1094072 6.77484237 2.26337666 10 4 C10 4.66 10 5.32 10 6 C12.97 6.495 12.97 6.495 16 7 C16 7.66 16 8.32 16 9 C16.81984375 9.2371875 17.6396875 9.474375 18.484375 9.71875 C22.68518109 11.24971044 26.37551648 13.28902674 30.25 15.5 C31.86452642 16.40895526 33.47911134 17.31780663 35.09375 18.2265625 C35.91230469 18.6896582 36.73085938 19.15275391 37.57421875 19.62988281 C41.29002696 21.72862634 45.01930967 23.80285939 48.75 25.875 C49.47832031 26.28024902 50.20664063 26.68549805 50.95703125 27.10302734 C57.03534188 30.47942917 63.14126723 33.80404044 69.25 37.125 C76.45641017 41.04529704 83.62780558 45.01189972 90.73046875 49.1171875 C93.12074326 50.49366577 95.51704559 51.85196785 97.92578125 53.1953125 C98.57546875 53.55979492 99.22515625 53.92427734 99.89453125 54.29980469 C101.14349237 54.99996059 102.39469561 55.69613662 103.6484375 56.38769531 C107.88766811 58.77533622 107.88766811 58.77533622 109 61 C105.59773393 60.32872077 102.96140132 59.00902973 99.9453125 57.31640625 C98.9749707 56.7764502 98.00462891 56.23649414 97.00488281 55.68017578 C96.01327148 55.12571777 95.02166016 54.57125977 94 54 C92.14455249 52.98585637 90.28780374 51.97408941 88.4296875 50.96484375 C86.578125 49.95572917 84.7265625 48.94661458 82.875 47.9375 C81.95074219 47.43412109 81.02648437 46.93074219 80.07421875 46.41210938 C75.04421472 43.6700832 70.02378 40.91226058 65.01977539 38.12304688 C62.87150294 36.92855234 60.71739791 35.74499272 58.5625 34.5625 C55.37423422 32.79431101 52.24198648 30.95337332 49.125 29.0625 C43.84048836 25.86892342 38.43630712 22.92547036 33 20 C26.53694454 16.50407455 20.10136509 12.96027646 13.6875 9.375 C13.01759033 9.00270264 12.34768066 8.63040527 11.6574707 8.24682617 C7.64469379 5.99604905 3.75335371 3.66517209 0 1 C0 0.67 0 0.34 0 0 Z " fill="#1A2028" transform="translate(23,308)"/>
<path d="M0 0 C6.9744776 1.35569471 12.46701246 4.14379292 18.625 7.625 C20.06673584 8.42599121 20.06673584 8.42599121 21.53759766 9.24316406 C24.36466952 10.81791553 27.18373236 12.40602111 30 14 C30.78568359 14.44375977 31.57136719 14.88751953 32.38085938 15.34472656 C36.26574747 17.54289363 40.13909672 19.75988547 44 22 C44 22.66 44 23.32 44 24 C44.66 24 45.32 24 46 24 C46 24.66 46 25.32 46 26 C41.45168539 26.40504471 38.68131992 25.10663029 34.6875 23 C33.61886719 22.443125 32.55023438 21.88625 31.44921875 21.3125 C30.23685547 20.6628125 30.23685547 20.6628125 29 20 C29 19.34 29 18.68 29 18 C27.98421875 17.75378906 26.9684375 17.50757813 25.921875 17.25390625 C21.92602533 16.1120912 18.74388942 14.19704586 15.25 11.9375 C10.82375931 9.05249552 10.82375931 9.05249552 6 7 C6 6.34 6 5.68 6 5 C5.01 4.67 4.02 4.34 3 4 C3 3.34 3 2.68 3 2 C2.01 2 1.02 2 0 2 C0 1.34 0 0.68 0 0 Z " fill="#B0BFC6" transform="translate(138,168)"/>
<path d="M0 0 C-5.96338866 4.33237638 -12.25809469 7.79220407 -18.77954102 11.18261719 C-26.18933349 15.05386873 -33.45400323 19.16864829 -40.71728516 23.30688477 C-45.48974668 26.02398828 -50.26925648 28.72823329 -55.0703125 31.39453125 C-56.41633545 32.14440308 -56.41633545 32.14440308 -57.78955078 32.90942383 C-60 34 -60 34 -62 34 C-60.86467415 30.59402245 -60.51883178 30.46547428 -57.5 28.9375 C-54.66980932 27.57554472 -54.66980932 27.57554472 -53 25 C-51.10813415 24.28632739 -49.21398425 23.57810348 -47.30859375 22.90136719 C-43.33821392 21.35117236 -39.69945659 19.22725093 -36 17.125 C-34.86691406 16.49271484 -34.86691406 16.49271484 -33.7109375 15.84765625 C-29.27311625 13.35424122 -24.96204657 10.73831964 -20.7265625 7.91357422 C-19 7 -19 7 -16 7 C-16 6.34 -16 5.68 -16 5 C-14.09118566 3.96455826 -12.17260796 2.94709915 -10.25 1.9375 C-9.18265625 1.36902344 -8.1153125 0.80054688 -7.015625 0.21484375 C-3.97406463 -1.01044806 -2.95106435 -1.25348607 0 0 Z " fill="#85A0A4" transform="translate(304,312)"/>
<path d="M0 0 C0.33 0 0.66 0 1 0 C1.33 10.56 1.66 21.12 2 32 C2.33 32 2.66 32 3 32 C3.02483449 37.83495783 3.04292349 43.66988446 3.05493164 49.50488281 C3.05994103 51.48731014 3.0667504 53.46973382 3.07543945 55.45214844 C3.08765429 58.31185818 3.09326239 61.1715188 3.09765625 64.03125 C3.10281754 64.90865845 3.10797882 65.78606689 3.11329651 66.69006348 C3.11376359 71.88625006 2.75216408 76.85717573 2 82 C-0.40256784 78.28551395 -0.2700101 74.65730653 -0.22705078 70.38574219 C-0.22734283 69.62437958 -0.22763489 68.86301697 -0.22793579 68.07858276 C-0.22654506 65.56789664 -0.21099604 63.05750914 -0.1953125 60.546875 C-0.19158146 58.80381431 -0.18873491 57.06075152 -0.18673706 55.31768799 C-0.1791078 50.73423452 -0.15946537 46.15090819 -0.1373291 41.56750488 C-0.11685546 36.88877075 -0.10773209 32.21001604 -0.09765625 27.53125 C-0.07621882 18.35411087 -0.04209138 9.17706601 0 0 Z " fill="#727D82" transform="translate(194,209)"/>
<path d="M0 0 C0.33 0 0.66 0 1 0 C2.46560818 10.93971819 2.09470423 21.98954106 2 33 C2.66 33 3.32 33 4 33 C4 23.76 4 14.52 4 5 C4.33 5 4.66 5 5 5 C5 14.57 5 24.14 5 34 C3.68 34 2.36 34 1 34 C1 34.66 1 35.32 1 36 C-1.475 36.495 -1.475 36.495 -4 37 C-4 37.66 -4 38.32 -4 39 C-6.31 39.66 -8.62 40.32 -11 41 C-11 41.66 -11 42.32 -11 43 C-12.98 43.495 -12.98 43.495 -15 44 C-15 43.34 -15 42.68 -15 42 C-15.66 41.67 -16.32 41.34 -17 41 C-16.26394531 40.60167969 -15.52789062 40.20335937 -14.76953125 39.79296875 C-13.79371094 39.26316406 -12.81789063 38.73335938 -11.8125 38.1875 C-10.36810547 37.40439453 -10.36810547 37.40439453 -8.89453125 36.60546875 C-6.99086293 35.54958794 -5.11141174 34.44859359 -3.26171875 33.30078125 C-1 32 -1 32 1 32 C0.83628906 30.76378906 0.67257812 29.52757812 0.50390625 28.25390625 C-0.1379312 22.47736922 -0.11011588 16.74297416 -0.0625 10.9375 C-0.05798828 9.88111328 -0.05347656 8.82472656 -0.04882812 7.73632812 C-0.03715918 5.15749092 -0.02078885 2.57877706 0 0 Z " fill="#30494F" transform="translate(338,258)"/>
<path d="M0 0 C0 0.66 0 1.32 0 2 C-1.96508789 3.38525391 -1.96508789 3.38525391 -4.72265625 4.9765625 C-6.23327637 5.85441406 -6.23327637 5.85441406 -7.77441406 6.75 C-8.85948242 7.36875 -9.94455078 7.9875 -11.0625 8.625 C-12.15401367 9.25148437 -13.24552734 9.87796875 -14.37011719 10.5234375 C-16.56150619 11.77676959 -18.75533452 13.0258469 -20.95166016 14.27050781 C-23.57353998 15.75804559 -26.18419231 17.26312306 -28.79296875 18.7734375 C-30.11087872 19.51757732 -31.42979071 20.25994717 -32.75 21 C-33.87921875 21.639375 -35.0084375 22.27875 -36.171875 22.9375 C-39 24 -39 24 -41.17675781 23.06640625 C-42.0792627 22.53853516 -42.0792627 22.53853516 -43 22 C-42.39752441 21.68885254 -41.79504883 21.37770508 -41.17431641 21.05712891 C-29.82415644 15.18709932 -18.50441018 9.29282639 -7.41064453 2.94775391 C-2.20793803 0 -2.20793803 0 0 0 Z " fill="#889EA4" transform="translate(301,142)"/>
<path d="M0 0 C4.5247192 0.57943673 7.94802327 2.47103852 11.8125 4.75 C13.23713782 5.57099775 14.66300003 6.38987323 16.08984375 7.20703125 C16.86956543 7.65385254 17.64928711 8.10067383 18.45263672 8.56103516 C23.22245468 11.25542916 28.05238198 13.83920865 32.875 16.4375 C36.91762541 18.62323029 40.9590942 20.8110923 45 23 C45.9295752 23.50337891 46.85915039 24.00675781 47.81689453 24.52539062 C50.36055695 25.90653969 52.89974393 27.29553536 55.4375 28.6875 C56.19466309 29.09734131 56.95182617 29.50718262 57.73193359 29.92944336 C62.88507738 32.77015477 62.88507738 32.77015477 64 35 C59.63164466 33.34391171 55.48530667 31.33837536 51.3125 29.25 C50.60351562 28.89583008 49.89453125 28.54166016 49.1640625 28.17675781 C44.35416748 25.74771702 39.72130808 23.12317227 35.13671875 20.2890625 C32.61638161 18.7685666 30.03134488 17.47494477 27.38671875 16.1875 C8.55758881 6.81916039 8.55758881 6.81916039 0 1 C0 0.67 0 0.34 0 0 Z " fill="#171C24" transform="translate(132,369)"/>
<path d="M0 0 C-0.84820312 0.4846875 -1.69640625 0.969375 -2.5703125 1.46875 C-3.41045898 1.94900635 -3.41045898 1.94900635 -4.26757812 2.43896484 C-5.51848088 3.15353153 -6.76979132 3.86738496 -8.02148438 4.58056641 C-11.30274973 6.45147769 -14.57675896 8.33302418 -17.8359375 10.2421875 C-18.45065918 10.59990234 -19.06538086 10.95761719 -19.69873047 11.32617188 C-21.41576495 12.32595232 -23.12983687 13.33081555 -24.84375 14.3359375 C-27.85409565 15.92307518 -30.74486646 17.02934271 -34 18 C-34.66 17.34 -35.32 16.68 -36 16 C-29.34942201 12.30369953 -22.68294722 8.63745496 -16 5 C-15.32001953 4.62842773 -14.64003906 4.25685547 -13.93945312 3.87402344 C-12.30057215 2.98518408 -10.65081533 2.11647272 -9 1.25 C-8.113125 0.78078125 -7.22625 0.3115625 -6.3125 -0.171875 C-3.71309677 -1.10274237 -2.5455178 -0.96635398 0 0 Z " fill="#4F545A" transform="translate(366,108)"/>
<path d="M0 0 C0.99 0 1.98 0 3 0 C3 14.19 3 28.38 3 43 C2.67 43 2.34 43 2 43 C1.67 41.02 1.34 39.04 1 37 C0.67 37 0.34 37 0 37 C0 24.79 0 12.58 0 0 Z " fill="#46666E" transform="translate(339,154)"/>
<path d="M0 0 C0.33 0 0.66 0 1 0 C1.33 1.65 1.66 3.3 2 5 C2.33 5 2.66 5 3 5 C3 14.9 3 24.8 3 35 C1.68 34.67 0.36 34.34 -1 34 C-0.67 33.01 -0.34 32.02 0 31 C0.08397157 28.64319787 0.10728187 26.28405919 0.09765625 23.92578125 C0.0962413 23.2419487 0.09482635 22.55811615 0.09336853 21.8535614 C0.08777876 19.67316278 0.07522822 17.49286749 0.0625 15.3125 C0.05748367 13.83268378 0.052921 12.35286594 0.04882812 10.87304688 C0.03781271 7.24866443 0.02055512 3.6243423 0 0 Z " fill="#2F3237" transform="translate(194,367)"/>
<path d="M0 0 C5.3537465 1.55652055 10.00150947 3.9817509 14.875 6.625 C15.65875 7.04523438 16.4425 7.46546875 17.25 7.8984375 C19.16892057 8.9281022 21.08477603 9.96347567 23 11 C23 11.66 23 12.32 23 13 C17.56221603 13.53051551 14.43700499 11.81728278 10 9 C9.11957031 8.50628906 8.23914062 8.01257813 7.33203125 7.50390625 C6.41808594 6.98699219 5.50414062 6.47007813 4.5625 5.9375 C3.69753906 5.45152344 2.83257812 4.96554688 1.94140625 4.46484375 C1.30074219 3.98144531 0.66007812 3.49804688 0 3 C0 2.01 0 1.02 0 0 Z " fill="#9BA0A6" transform="translate(39,113)"/>
<path d="M0 0 C0.99 0.33 1.98 0.66 3 1 C-2.36526736 4.83856526 -7.93598169 8.14994866 -13.75 11.25 C-14.38752197 11.59095703 -15.02504395 11.93191406 -15.68188477 12.28320312 C-19.05659583 14.06090143 -22.42683909 15.66347416 -26 17 C-26.66 16.34 -27.32 15.68 -28 15 C-27.18732666 14.58113525 -26.37465332 14.16227051 -25.53735352 13.73071289 C-22.53054459 12.17981889 -19.52462078 10.62723586 -16.51928711 9.07348633 C-15.21690545 8.40060268 -13.91417188 7.72839972 -12.61108398 7.05688477 C-10.74110062 6.09308581 -8.87238509 5.12686803 -7.00390625 4.16015625 C-5.31503296 3.28822632 -5.31503296 3.28822632 -3.59204102 2.39868164 C-1.13968101 1.23518039 -1.13968101 1.23518039 0 0 Z " fill="#879CA3" transform="translate(177,47)"/>
<path d="M0 0 C5.26122171 1.51031916 9.67232586 3.90374191 14.375 6.625 C15.47908203 7.25535156 15.47908203 7.25535156 16.60546875 7.8984375 C18.4063765 8.92752764 20.20357318 9.96310756 22 11 C22 12.32 22 13.64 22 15 C17.18477026 13.32225263 13.05333656 10.74434554 8.75 8.0625 C8.0178125 7.61970703 7.285625 7.17691406 6.53125 6.72070312 C5.83515625 6.28822266 5.1390625 5.85574219 4.421875 5.41015625 C3.78862305 5.01965088 3.15537109 4.62914551 2.50292969 4.22680664 C1 3 1 3 0 0 Z " fill="#A6AEB4" transform="translate(63,126)"/>
<path d="M0 0 C1.32 0.66 2.64 1.32 4 2 C0.37871557 4.00678401 -3.24761643 6.0042648 -6.875 8 C-8.42380859 8.85851562 -8.42380859 8.85851562 -10.00390625 9.734375 C-11.48310547 10.54648437 -11.48310547 10.54648437 -12.9921875 11.375 C-13.90339355 11.87773437 -14.81459961 12.38046875 -15.75341797 12.8984375 C-18 14 -18 14 -20 14 C-18.86467415 10.59402245 -18.51883178 10.46547428 -15.5 8.9375 C-12.66980932 7.57554472 -12.66980932 7.57554472 -11 5 C-9.2578125 4.21875 -9.2578125 4.21875 -7.125 3.5 C-4.32096296 2.54807599 -2.52418158 1.68278772 0 0 Z " fill="#81969B" transform="translate(262,332)"/>
<path d="M0 0 C3.55492178 1.35334396 6.85937328 2.92470948 10.1953125 4.75 C11.63970703 5.53890625 11.63970703 5.53890625 13.11328125 6.34375 C14.10714844 6.8903125 15.10101563 7.436875 16.125 8 C17.62740234 8.81984375 17.62740234 8.81984375 19.16015625 9.65625 C26.57777256 13.71851504 26.57777256 13.71851504 30 16 C27.62988568 16.84060231 26.41886017 17.15343053 24.02050781 16.27490234 C23.33827148 15.88254395 22.65603516 15.49018555 21.953125 15.0859375 C21.19 14.65410156 20.426875 14.22226562 19.640625 13.77734375 C18.85171875 13.31457031 18.0628125 12.85179687 17.25 12.375 C16.4765625 11.93542969 15.703125 11.49585938 14.90625 11.04296875 C12.59013456 9.71780874 10.29321413 8.36435451 8 7 C7.22076172 6.54399414 6.44152344 6.08798828 5.63867188 5.61816406 C4.90712891 5.17956055 4.17558594 4.74095703 3.421875 4.2890625 C2.7628418 3.8967041 2.10380859 3.5043457 1.42480469 3.10009766 C0.95461914 2.73706543 0.48443359 2.3740332 0 2 C0 1.34 0 0.68 0 0 Z " fill="#8AA4A9" transform="translate(217,49)"/>
<path d="M0 0 C-1.43865989 2.87731978 -3.49310783 3.50628229 -6.3125 5 C-7.76076172 5.7734375 -7.76076172 5.7734375 -9.23828125 6.5625 C-10.14964844 7.036875 -11.06101563 7.51125 -12 8 C-12.73089844 8.39960938 -13.46179688 8.79921875 -14.21484375 9.2109375 C-16.50520328 10.22330648 -17.68942699 9.82520465 -20 9 C-14.959398 4.35734027 -7.1794924 -2.67990269 0 0 Z " fill="#A5B8BE" transform="translate(233,181)"/>
<path d="M0 0 C0 0.66 0 1.32 0 2 C-1.8359375 3.32861328 -1.8359375 3.32861328 -4.375 4.8203125 C-5.27734375 5.35527344 -6.1796875 5.89023438 -7.109375 6.44140625 C-8.06328125 6.99699219 -9.0171875 7.55257812 -10 8.125 C-10.95390625 8.68832031 -11.9078125 9.25164062 -12.890625 9.83203125 C-15.25662727 11.22797259 -17.6264682 12.61691272 -20 14 C-20.66 13.01 -21.32 12.02 -22 11 C-18.7121022 9.15984502 -15.41908674 7.32904953 -12.125 5.5 C-11.18785156 4.97535156 -10.25070312 4.45070312 -9.28515625 3.91015625 C-8.38925781 3.41386719 -7.49335938 2.91757813 -6.5703125 2.40625 C-5.74289551 1.94541016 -4.91547852 1.48457031 -4.06298828 1.00976562 C-2 0 -2 0 0 0 Z " fill="#85969B" transform="translate(301,142)"/>
<path d="M0 0 C0.66 0.99 1.32 1.98 2 3 C-0.4335567 4.3410005 -2.87135301 5.67294856 -5.3125 7 C-6.00279297 7.3815625 -6.69308594 7.763125 -7.40429688 8.15625 C-12.66015625 11 -12.66015625 11 -16 11 C-15.8125 9.125 -15.8125 9.125 -15 7 C-13.35491593 6.28172386 -11.68308231 5.62406423 -10 5 C-8.22051575 4.14273021 -6.44946276 3.2677278 -4.6875 2.375 C-3.36298828 1.70597656 -3.36298828 1.70597656 -2.01171875 1.0234375 C-1.34785156 0.68570312 -0.68398437 0.34796875 0 0 Z " fill="#5F747A" transform="translate(241,344)"/>
<path d="M0 0 C-1.43376989 4.30130966 -4.61615517 5.23625005 -8.4375 7.1875 C-9.47874023 7.73954102 -9.47874023 7.73954102 -10.54101562 8.30273438 C-15.71035772 11 -15.71035772 11 -18 11 C-18 11.66 -18 12.32 -18 13 C-20 12 -20 12 -21 10 C-17.87852455 8.32666842 -14.75226502 6.66248284 -11.625 5 C-10.73554688 4.52304687 -9.84609375 4.04609375 -8.9296875 3.5546875 C-8.07890625 3.10351562 -7.228125 2.65234375 -6.3515625 2.1875 C-5.56604004 1.76855469 -4.78051758 1.34960938 -3.97119141 0.91796875 C-2 0 -2 0 0 0 Z " fill="#647C81" transform="translate(323,300)"/>
<path d="M0 0 C4.08254706 1.23425841 7.35989618 2.81593771 11 5 C12.98451771 5.71143088 14.98202112 6.38991336 17 7 C17 7.99 17 8.98 17 10 C11.8896856 8.8545847 7.62765919 7.54521255 3 5 C3 4.01 3 3.02 3 2 C2.01 2 1.02 2 0 2 C0 1.34 0 0.68 0 0 Z " fill="#B5C5CA" transform="translate(156,178)"/>
<path d="M0 0 C4.50727647 0.60266785 7.8587963 2.36599794 11.8125 4.5625 C12.7087207 5.0565332 12.7087207 5.0565332 13.62304688 5.56054688 C15.08533998 6.36773267 16.5431399 7.18304917 18 8 C18 8.99 18 9.98 18 11 C13.50902459 9.65135873 9.67388743 7.85935169 5.625 5.5 C4.56539062 4.8915625 3.50578125 4.283125 2.4140625 3.65625 C1.61742187 3.1096875 0.82078125 2.563125 0 2 C0 1.34 0 0.68 0 0 Z " fill="#98B4B7" transform="translate(245,65)"/>
<path d="M0 0 C6 3 12 6 18 9 C18 9.66 18 10.32 18 11 C13.13127946 10.40440894 9.40671159 8.27522585 5.1875 5.9375 C4.49462891 5.56044922 3.80175781 5.18339844 3.08789062 4.79492188 C1.38871015 3.86916148 -0.30609425 2.93537688 -2 2 C-1.34 1.34 -0.68 0.68 0 0 Z " fill="#8AA2A6" transform="translate(284,85)"/>
<path d="M0 0 C0 0.99 0 1.98 0 3 C-2.07357305 4.22856207 -4.15596754 5.43225346 -6.25 6.625 C-6.83652344 6.975625 -7.42304688 7.32625 -8.02734375 7.6875 C-9.765625 8.6640625 -9.765625 8.6640625 -13 10 C-15.421875 9.2109375 -15.421875 9.2109375 -17 8 C-14.54429825 6.66161267 -12.08570084 5.32913768 -9.625 4 C-8.92632812 3.6184375 -8.22765625 3.236875 -7.5078125 2.84375 C-2.2265625 0 -2.2265625 0 0 0 Z " fill="#545A61" transform="translate(347,116)"/>
<path d="M0 0 C-0.99 0.495 -0.99 0.495 -2 1 C-4.6015625 -0.21484375 -4.6015625 -0.21484375 -7.625 -1.9375 C-8.62789062 -2.50339844 -9.63078125 -3.06929687 -10.6640625 -3.65234375 C-11.43492187 -4.09707031 -12.20578125 -4.54179687 -13 -5 C-13 -4.34 -13 -3.68 -13 -3 C-12.01 -3 -11.02 -3 -10 -3 C-10 -2.34 -10 -1.68 -10 -1 C-14.43090471 -2.20842856 -16.98112756 -3.51668565 -20 -7 C-12.81858758 -9.7620817 -5.83152441 -3.66487107 0 0 Z " fill="#A3B6BD" transform="translate(169,183)"/>
<path d="M0 0 C-5.04615385 4.92307692 -5.04615385 4.92307692 -9.875 5.3125 C-10.90625 5.209375 -11.9375 5.10625 -13 5 C-13.33 4.01 -13.66 3.02 -14 2 C-12.04396149 1.47061343 -10.08507711 0.95173199 -8.125 0.4375 C-7.03445312 0.14746094 -5.94390625 -0.14257812 -4.8203125 -0.44140625 C-2 -1 -2 -1 0 0 Z " fill="#216A6E" transform="translate(210,68)"/>
<path d="M0 0 C-1.39176632 0.96423026 -2.7886223 1.92111602 -4.1875 2.875 C-4.96480469 3.40867187 -5.74210937 3.94234375 -6.54296875 4.4921875 C-8.9676609 5.98015439 -11.3333499 7.02428078 -14 8 C-14 7.34 -14 6.68 -14 6 C-14.66 5.67 -15.32 5.34 -16 5 C-14.09118566 3.96455826 -12.17260796 2.94709915 -10.25 1.9375 C-8.64898437 1.08478516 -8.64898437 1.08478516 -7.015625 0.21484375 C-3.97406463 -1.01044806 -2.95106435 -1.25348607 0 0 Z " fill="#78969B" transform="translate(304,312)"/>
<path d="M0 0 C0.66 0.33 1.32 0.66 2 1 C1.67 1.33 1.34 1.66 1 2 C1.66 2.66 2.32 3.32 3 4 C-1.95 6.475 -1.95 6.475 -7 9 C-7 8.34 -7 7.68 -7 7 C-7.99 6.67 -8.98 6.34 -10 6 C-9.36191406 5.65066406 -8.72382813 5.30132812 -8.06640625 4.94140625 C-7.24011719 4.48636719 -6.41382813 4.03132812 -5.5625 3.5625 C-4.73878906 3.11003906 -3.91507813 2.65757812 -3.06640625 2.19140625 C-1.07691202 1.16337603 -1.07691202 1.16337603 0 0 Z " fill="#9DB0B6" transform="translate(213,188)"/>
<path d="M0 0 C6.97986313 0.31021614 12.07291522 3.4951958 18 7 C17.67 7.66 17.34 8.32 17 9 C13.52823527 7.98387374 10.47427812 6.77832394 7.375 4.9375 C4.73573302 3.42236525 2.94181057 2.47068969 0 2 C0 1.34 0 0.68 0 0 Z " fill="#657378" transform="translate(194,38)"/>
<path d="M0 0 C2 1 2 1 3 3 C0.73495035 4.19984797 -1.53589888 5.38494769 -3.8125 6.5625 C-4.45509766 6.90474609 -5.09769531 7.24699219 -5.75976562 7.59960938 C-7.46926395 8.4765023 -9.23321294 9.24515617 -11 10 C-11.99 9.67 -12.98 9.34 -14 9 C-11.71439353 7.4693001 -9.42237333 5.95034956 -7.125 4.4375 C-6.14853516 3.78104492 -6.14853516 3.78104492 -5.15234375 3.11132812 C-3.47374503 2.01245164 -1.73976613 0.9992182 0 0 Z " fill="#92A0A7" transform="translate(90,93)"/>
<path d="M0 0 C-0.75 1.9375 -0.75 1.9375 -2 4 C-4.125 4.75 -4.125 4.75 -6 5 C-6 5.66 -6 6.32 -6 7 C-7.32 7.33 -8.64 7.66 -10 8 C-10 7.34 -10 6.68 -10 6 C-10.66 5.67 -11.32 5.34 -12 5 C-10.56705502 4.15885829 -9.12845595 3.32734313 -7.6875 2.5 C-6.88699219 2.0359375 -6.08648437 1.571875 -5.26171875 1.09375 C-3 0 -3 0 0 0 Z " fill="#4D6167" transform="translate(333,294)"/>
<path d="M0 0 C6.91428571 0.94285714 6.91428571 0.94285714 10 3 C10.33 3.99 10.66 4.98 11 6 C3.25531915 5.25531915 3.25531915 5.25531915 0 2 C0 1.34 0 0.68 0 0 Z " fill="#B4C1C8" transform="translate(123,160)"/>
<path d="M0 0 C0.99 0.33 1.98 0.66 3 1 C2.34 1 1.68 1 1 1 C1.33 1.99 1.66 2.98 2 4 C0.54462432 4.83848804 -0.91440373 5.67063934 -2.375 6.5 C-3.59316406 7.19609375 -3.59316406 7.19609375 -4.8359375 7.90625 C-7 9 -7 9 -9 9 C-7.86467415 5.59402245 -7.51883178 5.46547428 -4.5 3.9375 C-1.66980932 2.57554472 -1.66980932 2.57554472 0 0 Z " fill="#70878C" transform="translate(251,337)"/>
<path d="M0 0 C-1.59622656 1.03320481 -3.20229106 2.05122429 -4.8125 3.0625 C-6.15248047 3.91521484 -6.15248047 3.91521484 -7.51953125 4.78515625 C-10 6 -10 6 -13 5 C-11.68 4.34 -10.36 3.68 -9 3 C-9 2.34 -9 1.68 -9 1 C-3.375 -1.125 -3.375 -1.125 0 0 Z " fill="#A7B6BC" transform="translate(112,85)"/>
<path d="M0 0 C0.556875 0.226875 1.11375 0.45375 1.6875 0.6875 C0.6975 1.1825 0.6975 1.1825 -0.3125 1.6875 C-0.3125 2.3475 -0.3125 3.0075 -0.3125 3.6875 C-1.9625 4.0175 -3.6125 4.3475 -5.3125 4.6875 C-5.3125 5.3475 -5.3125 6.0075 -5.3125 6.6875 C-5.9725 6.3575 -6.6325 6.0275 -7.3125 5.6875 C-7.3125 4.6975 -7.3125 3.7075 -7.3125 2.6875 C-3.28618421 -0.44407895 -3.28618421 -0.44407895 0 0 Z " fill="#3F4F56" transform="translate(339.3125,290.3125)"/>
<path d="M0 0 C3.94859783 0.5640854 6.70879046 1.7431706 10 4 C10 4.33 10 4.66 10 5 C5.55129785 5.39253254 2.85756507 4.15305957 -1 2 C-0.67 1.34 -0.34 0.68 0 0 Z " fill="#21656A" transform="translate(182,65)"/>
<path d="M0 0 C3.3 0.99 6.6 1.98 10 3 C10 3.99 10 4.98 10 6 C7.0625 5.625 7.0625 5.625 4 5 C3.67 4.34 3.34 3.68 3 3 C2.01 2.67 1.02 2.34 0 2 C0 1.34 0 0.68 0 0 Z " fill="#CAD5DA" transform="translate(163,182)"/>
<path d="M0 0 C3.82097239 0.53069061 6.06171403 1.49701566 9 4 C8.01 4 7.02 4 6 4 C6 4.66 6 5.32 6 6 C5.34 6 4.68 6 4 6 C4 5.34 4 4.68 4 4 C2.68 3.34 1.36 2.68 0 2 C0 1.34 0 0.68 0 0 Z " fill="#A9BAC1" transform="translate(117,156)"/>
<path d="M0 0 C0 0.66 0 1.32 0 2 C-3.96 3.98 -3.96 3.98 -8 6 C-8.33 5.01 -8.66 4.02 -9 3 C-5.55930376 0.70620251 -4.27709699 0 0 0 Z " fill="#656D74" transform="translate(332,125)"/>
<path d="M0 0 C3.7910119 1.44950455 7.3874638 3.15172566 11 5 C10.67 5.66 10.34 6.32 10 7 C6.12697862 5.85569823 2.99736561 4.76679902 0 2 C0 1.34 0 0.68 0 0 Z " fill="#7E9295" transform="translate(217,49)"/>
<path d="M0 0 C0.66 0.33 1.32 0.66 2 1 C2 1.99 2 2.98 2 4 C-0.375 5.75 -0.375 5.75 -3 7 C-3.66 6.67 -4.32 6.34 -5 6 C-5 5.01 -5 4.02 -5 3 C-2.625 1.25 -2.625 1.25 0 0 Z " fill="#92A9B1" transform="translate(237,175)"/>
<path d="M0 0 C2.375 1.25 2.375 1.25 4.375 3.25 C3.715 3.25 3.055 3.25 2.375 3.25 C2.375 3.91 2.375 4.57 2.375 5.25 C1.715 5.25 1.055 5.25 0.375 5.25 C0.375 4.59 0.375 3.93 0.375 3.25 C-1.935 2.59 -4.245 1.93 -6.625 1.25 C-4.00244032 -0.49837312 -3.10272901 -0.886494 0 0 Z " fill="#A0ADB2" transform="translate(102.625,146.75)"/>
<path d="M0 0 C0 0.66 0 1.32 0 2 C-2.75 3.625 -2.75 3.625 -6 5 C-8.375 4.1875 -8.375 4.1875 -10 3 C-6.48812804 0.59185923 -4.27343092 -0.36629408 0 0 Z " fill="#5A6067" transform="translate(340,121)"/>
<path d="M0 0 C1.4800841 0.11362262 2.95910074 0.24122908 4.4375 0.375 C5.26121094 0.44460937 6.08492187 0.51421875 6.93359375 0.5859375 C7.95646484 0.79089844 7.95646484 0.79089844 9 1 C9.33 1.66 9.66 2.32 10 3 C8.02 3.66 6.04 4.32 4 5 C4 4.01 4 3.02 4 2 C2.68 2 1.36 2 0 2 C0 1.34 0 0.68 0 0 Z " fill="#237D83" transform="translate(187,70)"/>
<path d="M0 0 C3.48670834 1.1094072 6.77484237 2.26337666 10 4 C9.67 4.99 9.34 5.98 9 7 C6.03 5.35 3.06 3.7 0 2 C0 1.34 0 0.68 0 0 Z " fill="#859EA1" transform="translate(227,55)"/>
<path d="M0 0 C-4.455 2.97 -4.455 2.97 -9 6 C-9.33 5.01 -9.66 4.02 -10 3 C-3.375 -1.125 -3.375 -1.125 0 0 Z " fill="#7F8F95" transform="translate(180,48)"/>
<path d="M0 0 C0 0.66 0 1.32 0 2 C-1.98 2.66 -3.96 3.32 -6 4 C-6 4.66 -6 5.32 -6 6 C-8 5 -8 5 -9 3 C-3.375 0 -3.375 0 0 0 Z " fill="#698489" transform="translate(311,307)"/>
<path d="M0 0 C0 0.66 0 1.32 0 2 C-2.97 3.65 -5.94 5.3 -9 7 C-9 6.01 -9 5.02 -9 4 C-2.25 0 -2.25 0 0 0 Z " fill="#7B8B91" transform="translate(301,142)"/>
<path d="M0 0 C4.75 0.875 4.75 0.875 7 2 C7 2.66 7 3.32 7 4 C5.02 4 3.04 4 1 4 C0.67 2.68 0.34 1.36 0 0 Z " fill="#A3AAAE" transform="translate(55,122)"/>
<path d="M0 0 C3.37503669 1.1858237 5.64722731 2.27573689 8 5 C2.46153846 4.38461538 2.46153846 4.38461538 0.125 2.4375 C-0.24625 1.963125 -0.6175 1.48875 -1 1 C-0.67 0.67 -0.34 0.34 0 0 Z " fill="#94B0B4" transform="translate(276,81)"/>
<path d="M0 0 C0.66 0.99 1.32 1.98 2 3 C-0.64738916 4.4606285 -1.89448334 5 -5 5 C-4.67 3.68 -4.34 2.36 -4 1 C-2.68 0.67 -1.36 0.34 0 0 Z " fill="#586B72" transform="translate(230,350)"/>
<path d="M0 0 C0.66 0.33 1.32 0.66 2 1 C1.67 1.33 1.34 1.66 1 2 C1.66 2.66 2.32 3.32 3 4 C1.35 4.66 -0.3 5.32 -2 6 C-2 5.34 -2 4.68 -2 4 C-2.99 3.67 -3.98 3.34 -5 3 C-2.625 1.4375 -2.625 1.4375 0 0 Z " fill="#95A7AE" transform="translate(208,191)"/>
<path d="M0 0 C0.66 0.33 1.32 0.66 2 1 C-1.60957611 4.2910841 -4.12637153 5.54663921 -9 6 C-6.45368965 3.02930459 -3.57769851 1.5224249 0 0 Z " fill="#36555D" transform="translate(251,171)"/>
<path d="M0 0 C3.24271506 0.5590888 4.93057424 1.4132178 7 4 C7 4.66 7 5.32 7 6 C4.0625 5.25 4.0625 5.25 1 4 C0.125 1.875 0.125 1.875 0 0 Z " fill="#888D95" transform="translate(39,113)"/>
<path d="M0 0 C2.875 -0.125 2.875 -0.125 6 0 C8 2 8 2 8 5 C4.62496331 3.8141763 2.35277269 2.72426311 0 0 Z " fill="#949EA4" transform="translate(77,136)"/>
<path d="M0 0 C2.9719385 1.12451727 5.33440687 2.22293791 8 4 C8 4.66 8 5.32 8 6 C4.54074837 4.7508258 1.85306797 3.32472205 -1 1 C-0.67 0.67 -0.34 0.34 0 0 Z " fill="#74898E" transform="translate(302,95)"/>
<path d="M0 0 C2.97 0.495 2.97 0.495 6 1 C6.33 2.32 6.66 3.64 7 5 C5.68 4.67 4.36 4.34 3 4 C3 3.34 3 2.68 3 2 C2.01 2 1.02 2 0 2 C0 1.34 0 0.68 0 0 Z " fill="#BFCBD3" transform="translate(138,168)"/>
<path d="M0 0 C0.66 0.33 1.32 0.66 2 1 C1.67 1.33 1.34 1.66 1 2 C1.66 2.66 2.32 3.32 3 4 C1.02 4.66 -0.96 5.32 -3 6 C-3 4.68 -3 3.36 -3 2 C-2.01 1.34 -1.02 0.68 0 0 Z " fill="#86A3AA" transform="translate(138,67)"/>
</svg>
